<svg version="1.1" viewBox="0.0 0.0 1024.0 1024.0" fill="none" stroke="none" stroke-linecap="square" stroke-miterlimit="10" xmlns:xlink="http://www.w3.org/1999/xlink" xmlns="http://www.w3.org/2000/svg"><clipPath id="p.0"><path d="m0 0l1024.0 0l0 1024.0l-1024.0 0l0 -1024.0z" clip-rule="nonzero"/></clipPath><g clip-path="url(#p.0)"><path fill="#000000" fill-opacity="0.0" d="m0 0l1024.0 0l0 1024.0l-1024.0 0z" fill-rule="evenodd"/><path fill="#0089ff" d="m197.71747 174.56396l0 0c0 -64.50409 52.290894 -116.79498 116.79498 -116.79498l467.16595 0l0 0c30.975952 0 60.683228 12.305149 82.58649 34.20846c21.90332 21.903305 34.208496 51.610573 34.208496 82.586525l0 701.7996c0 64.50409 -52.290894 116.79498 -116.79498 116.79498l-467.16595 0c-64.50409 0 -116.79498 -52.290894 -116.79498 -116.79498z" fill-rule="evenodd"/><path fill="#ffffff" d="m169.3039 200.17525l0 0c0 -62.686295 50.817276 -113.50358 113.50357 -113.50358l454.0007 0l0 0c30.103027 0 58.973145 11.958374 80.259155 33.24443c21.286072 21.286049 33.244446 50.15612 33.244446 80.25915l0 634.8265c0 62.68628 -50.81726 113.50354 -113.5036 113.50354l-454.0007 0c-62.686295 0 -113.50357 -50.81726 -113.50357 -113.50354z" fill-rule="evenodd"/><path stroke="#000000" stroke-width="1.0" stroke-linejoin="round" stroke-linecap="butt" d="m169.3039 200.17525l0 0c0 -62.686295 50.817276 -113.50358 113.50357 -113.50358l454.0007 0l0 0c30.103027 0 58.973145 11.958374 80.259155 33.24443c21.286072 21.286049 33.244446 50.15612 33.244446 80.25915l0 634.8265c0 62.68628 -50.81726 113.50354 -113.5036 113.50354l-454.0007 0c-62.686295 0 -113.50357 -50.81726 -113.50357 -113.50354z" fill-rule="evenodd"/><path fill="#0089ff" d="m125.52619 144.31985l0 0c0 -62.686295 50.817284 -113.50358 113.50358 -113.50358l454.00067 0l0 0c30.103027 0 58.973145 11.958378 80.259155 33.24443c21.286072 21.286049 33.244446 50.156128 33.244446 80.25915l0 659.1576c0 62.68634 -50.81726 113.5036 -113.5036 113.5036l-454.00067 0c-62.686295 0 -113.50358 -50.81726 -113.50358 -113.5036z" fill-rule="evenodd"/><path fill="#000000" fill-opacity="0.0" d="m136.03209 853.9111l115.968506 128.76001" fill-rule="evenodd"/><path stroke="#000000" stroke-width="1.0" stroke-linejoin="round" stroke-linecap="butt" d="m136.03209 853.9111l115.968506 128.76001" fill-rule="evenodd"/><path fill="#0089ff" d="m307.82758 993.1629l0 0c-48.16858 0.7458496 -94.60701 -18.622192 -128.88579 -53.75421c-34.278793 -35.13202 -53.52462 -83.08325 -53.41513 -133.08441z" fill-rule="evenodd"/><path fill="#ffffff" d="m419.1794 176.53291l93.7626 0l0 594.74603l-93.7626 0z" fill-rule="evenodd"/><path fill="#ffffff" d="m251.94153 407.79562l0 -88.11807l428.23834 0l0 88.11807z" fill-rule="evenodd"/></g></svg>